<svg xmlns="http://www.w3.org/2000/svg" xmlns:xlink="http://www.w3.org/1999/xlink" viewBox="0 0 159 159"><defs><style>.cls-1,.cls-12{fill:none;}.cls-2,.cls-5{fill:#1f8e26;}.cls-14,.cls-15,.cls-2,.cls-4,.cls-8,.cls-9{isolation:isolate;}.cls-3{opacity:0.15;}.cls-6{opacity:0.2;}.cls-15,.cls-17,.cls-7,.cls-9{opacity:0.05;}.cls-13,.cls-14,.cls-8{fill:#fff;}.cls-10,.cls-8{opacity:0.1;}.cls-11{fill:#231815;}.cls-12{stroke:#fff;stroke-linecap:round;stroke-miterlimit:10;stroke-width:6px;}.cls-14{opacity:0.07;}.cls-16{clip-path:url(#clip-path);}.cls-18{fill:url(#未命名漸層_9);}</style><clipPath id="clip-path"><circle class="cls-1" cx="79.5" cy="79.5" r="79"/></clipPath><linearGradient id="未命名漸層_9" x1="79.5" y1="104.2" x2="79.5" y2="54.8" gradientUnits="userSpaceOnUse"><stop offset="0" stop-color="#ccc"/><stop offset="0.25" stop-color="#fff"/><stop offset="1" stop-color="#fff"/></linearGradient></defs><title>籌碼SVG版本_2_正面_文字整理好_2</title><g id="圖層_2" data-name="圖層 2"><circle class="cls-2" cx="79.5" cy="79.5" r="79"/><circle class="cls-3" cx="79.5" cy="79.5" r="60.04"/><g class="cls-4"><circle class="cls-5" cx="79.5" cy="79.5" r="50.65"/></g><g class="cls-6"><path d="M91.33,53.8l-8.44,49.4H72.27l6.4-37.4a16.05,16.05,0,0,1-2.33,1.46,25.54,25.54,0,0,1-2.75,1.25,24.85,24.85,0,0,1-3,.94,21.92,21.92,0,0,1-3,.56l1.53-9A52.42,52.42,0,0,0,77.55,58a55.26,55.26,0,0,0,7.34-4.15Z"/></g><g class="cls-6"><path d="M91.33,54.3l-8.44,49.4H72.27l6.4-37.4a16.05,16.05,0,0,1-2.33,1.46A25.54,25.54,0,0,1,73.59,69a24.85,24.85,0,0,1-3,.94,21.92,21.92,0,0,1-3,.56l1.53-9a52.42,52.42,0,0,0,8.35-3.1,55.26,55.26,0,0,0,7.34-4.15Z"/></g><g class="cls-4"><g class="cls-7"><path d="M79.5,19.46a60,60,0,1,0,60,60A60,60,0,0,0,79.5,19.46Zm0,117.06a57,57,0,1,1,57-57A57,57,0,0,1,79.5,136.52Z"/></g></g><path class="cls-8" d="M81.5,127.15A50.66,50.66,0,0,1,38.28,50.08a50.65,50.65,0,1,0,84.44,55.84A50.56,50.56,0,0,1,81.5,127.15Z"/><g class="cls-9"><path d="M130.15,79.5A50.64,50.64,0,0,0,42.71,44.71a50.63,50.63,0,0,1,71.58,71.58A50.48,50.48,0,0,0,130.15,79.5Z"/></g><path class="cls-8" d="M140.54,77.5c0-33.16-25.88-59-59-59-17.09,0-32.5,6.15-43.43,17.61a60,60,0,0,1,84.86,84.86C134.39,110,140.54,94.59,140.54,77.5Z"/><g class="cls-10"><g class="cls-4"><path class="cls-11" d="M79.5,26.8a52.7,52.7,0,1,0,52.7,52.7A52.71,52.71,0,0,0,79.5,26.8Zm0,103.35A50.65,50.65,0,1,1,130.15,79.5,50.65,50.65,0,0,1,79.5,130.15Z"/></g></g><g class="cls-4"><g class="cls-10"><path d="M79.5,19.46a60,60,0,1,0,60,60A60,60,0,0,0,79.5,19.46Zm0,118.22A58.18,58.18,0,1,1,137.68,79.5,58.18,58.18,0,0,1,79.5,137.68Z"/></g></g><g class="cls-10"><g class="cls-4"><path class="cls-11" d="M79.5,27.83A51.67,51.67,0,1,0,131.17,79.5,51.68,51.68,0,0,0,79.5,27.83Zm0,102.32A50.65,50.65,0,1,1,130.15,79.5,50.65,50.65,0,0,1,79.5,130.15Z"/></g></g><g class="cls-7"><g class="cls-4"><path class="cls-11" d="M79.5,25.75A53.75,53.75,0,1,0,133.25,79.5,53.74,53.74,0,0,0,79.5,25.75Zm0,104.4A50.65,50.65,0,1,1,130.15,79.5,50.65,50.65,0,0,1,79.5,130.15Z"/></g></g><path class="cls-12" d="M57.17,28.85a55,55,0,0,1,15.32-4.26"/><path class="cls-12" d="M27.89,59.47a55.05,55.05,0,0,1,7.83-13.84"/><path class="cls-12" d="M28.85,101.83a55,55,0,0,1-4.26-15.32"/><path class="cls-12" d="M59.47,131.11a55.05,55.05,0,0,1-13.84-7.83"/><path class="cls-12" d="M101.83,130.15a55,55,0,0,1-15.32,4.26"/><path class="cls-12" d="M131.11,99.53a55.05,55.05,0,0,1-7.83,13.84"/><path class="cls-12" d="M130.15,57.17a55,55,0,0,1,4.26,15.32"/><path class="cls-12" d="M99.53,27.89a55.05,55.05,0,0,1,13.84,7.83"/><path class="cls-8" d="M81.5,128c-28,0-51.38-23.57-51.38-51.54,0-9.68,3.45-18.72,8.16-26.42a50.65,50.65,0,1,0,84.44,55.84C113.54,118.77,98.5,128,81.5,128Z"/><path class="cls-8" d="M81.5,129.22c-28,0-52-20.46-52-52.72,0-9.68,4-18.72,8.75-26.42a50.65,50.65,0,1,0,84.44,55.84C113.54,118.77,98.5,129.22,81.5,129.22Z"/><path class="cls-8" d="M140.05,77.5c0-32.79-27.28-58.63-58.55-58.63-17.09,0-32.5,5.74-43.43,17.2a60,60,0,0,1,84.86,84.86C134.39,110,140.05,94.59,140.05,77.5Z"/><path class="cls-8" d="M139.76,77.5c0-30.59-26.39-58.39-58.26-58.39-17.09,0-32.5,5.5-43.43,17a60,60,0,0,1,84.86,84.86C134.39,110,139.76,94.59,139.76,77.5Z"/><g class="cls-9"><path class="cls-13" d="M130.15,79.5A50.64,50.64,0,0,0,42.71,44.71C51.78,36.12,64,29.78,77.5,29.83c30.21.11,51.65,23.7,51.65,51.67,0,13.48-6.27,25.72-14.86,34.79A50.48,50.48,0,0,0,130.15,79.5Z"/></g><g class="cls-9"><path class="cls-13" d="M130.15,79.5A50.64,50.64,0,0,0,42.71,44.71C51.78,36.12,64,29.31,77.5,29.31c30.68,0,52.14,22.44,52.14,52.19,0,13.48-6.76,25.72-15.35,34.79A50.48,50.48,0,0,0,130.15,79.5Z"/></g><path class="cls-14" d="M158.5,79.5A79,79,0,0,0,22.66,24.66,79,79,0,0,1,134.34,136.34,78.75,78.75,0,0,0,158.5,79.5Z"/><path class="cls-14" d="M158.5,79.5A79,79,0,0,0,22.66,24.66C36.87,11,56.19,1.49,77.5,1.46c46.26-.07,79.78,35.15,80,80,.09,21.31-9.43,40.63-23.14,54.84A78.75,78.75,0,0,0,158.5,79.5Z"/><g class="cls-4"><g class="cls-10"><path d="M79.5,19.46a60,60,0,1,0,60,60A60,60,0,0,0,79.5,19.46Zm0,119.38A59.34,59.34,0,1,1,138.84,79.5,59.34,59.34,0,0,1,79.5,138.84Z"/></g></g><path class="cls-15" d="M1.5,76.43a80.92,80.92,0,0,1,2.85-21.3,79,79,0,0,0,99.52,99.52A81.06,81.06,0,0,1,1.5,76.43Z"/><path class="cls-15" d="M1,76.43a81.15,81.15,0,0,1,3.33-21.3,79,79,0,0,0,99.52,99.52,81.09,81.09,0,0,1-21.3,3.23C33.84,157.88,1,121.21,1,76.43Z"/><path class="cls-15" d="M1.11,76.83a84.06,84.06,0,0,1,3.24-21.7,79,79,0,0,0,99.52,99.52,81,81,0,0,1-21.3,3C36,157.7,1.11,120.93,1.11,76.83Z"/><g class="cls-16"><g class="cls-7"><rect x="-8.25" y="62.63" width="20.62" height="33.75" rx="3"/></g><g class="cls-7"><rect x="-8.45" y="62.3" width="21.03" height="34.42" rx="3"/></g><g class="cls-7"><rect x="-8.66" y="61.96" width="21.45" height="35.11" rx="3"/></g><g class="cls-7"><rect x="28.15" y="128.3" width="20.62" height="33.75" rx="3" transform="translate(-105.03 100.86) rotate(-58)"/></g><g class="cls-7"><rect x="27.95" y="127.96" width="21.03" height="34.42" rx="3" transform="translate(-105.03 100.86) rotate(-58)"/></g><g class="cls-7"><rect x="27.74" y="127.61" width="21.45" height="35.11" rx="3" transform="translate(-105.03 100.86) rotate(-58)"/></g><rect class="cls-17" x="103.66" y="134.86" width="33.75" height="20.62" rx="3" transform="translate(-58.61 85.93) rotate(-32)"/><rect class="cls-17" x="103.32" y="134.65" width="34.42" height="21.03" rx="3" transform="translate(-58.61 85.93) rotate(-32)"/><rect class="cls-17" x="102.98" y="134.44" width="35.11" height="21.45" rx="3" transform="translate(-58.61 85.93) rotate(-32)"/><rect class="cls-17" x="146.62" y="62.63" width="20.62" height="33.75" rx="3"/><rect class="cls-17" x="146.42" y="62.29" width="21.03" height="34.42" rx="3"/><rect class="cls-17" x="146.2" y="61.94" width="21.45" height="35.11" rx="3"/><rect class="cls-17" x="110.22" y="-3.04" width="20.62" height="33.75" rx="3" transform="translate(44.93 108.72) rotate(-58)"/><rect class="cls-17" x="110.02" y="-3.37" width="21.03" height="34.42" rx="3" transform="translate(44.92 108.72) rotate(-58)"/><rect class="cls-17" x="109.8" y="-3.71" width="21.45" height="35.11" rx="3" transform="matrix(0.53, -0.85, 0.85, 0.53, 44.91, 108.73)"/><g class="cls-7"><rect x="21.59" y="3.52" width="33.75" height="20.62" rx="3" transform="translate(-1.48 22.49) rotate(-32)"/></g><g class="cls-7"><rect x="21.25" y="3.31" width="34.42" height="21.03" rx="3" transform="translate(-1.48 22.49) rotate(-32)"/></g><g class="cls-7"><rect x="20.91" y="3.1" width="35.11" height="21.45" rx="3" transform="translate(-1.48 22.49) rotate(-32)"/></g><rect class="cls-13" x="-8.04" y="62.96" width="20.22" height="33.09" rx="3"/><rect class="cls-13" x="28.36" y="128.63" width="20.22" height="33.09" rx="3" transform="translate(-105.03 100.86) rotate(-58)"/><rect class="cls-13" x="110.43" y="-2.71" width="20.22" height="33.09" rx="3" transform="translate(44.93 108.72) rotate(-58)"/><rect class="cls-13" x="146.83" y="62.96" width="20.22" height="33.09" rx="3"/><rect class="cls-13" x="103.99" y="135.06" width="33.09" height="20.22" rx="3" transform="matrix(0.85, -0.53, 0.53, 0.85, -58.61, 85.93)"/><rect class="cls-13" x="21.92" y="3.72" width="33.09" height="20.22" rx="3" transform="translate(-1.48 22.49) rotate(-32)"/></g><path class="cls-18" d="M91.33,54.8l-8.44,49.4H72.27l6.4-37.4a16.05,16.05,0,0,1-2.33,1.46,25.54,25.54,0,0,1-2.75,1.25,24.85,24.85,0,0,1-3,.94,21.92,21.92,0,0,1-3,.56l1.53-9A52.42,52.42,0,0,0,77.55,59a55.26,55.26,0,0,0,7.34-4.15Z"/></g></svg>